<svg width="93" height="107" viewBox="0 0 93 107" fill="none" xmlns="http://www.w3.org/2000/svg">
    <g clip-path="url(#clip0_3757_5284)">
        <path d="M20.2489 102.919C20.2489 105.172 22.0632 106.991 24.2911 106.991H37.4707V98.837H24.2911C22.0538 98.837 20.2489 100.665 20.2489 102.909V102.919Z" fill="#BABAFF"/>
        <path d="M67.4398 98.8464H55.5293V107H67.4398C69.6771 107 71.4821 105.172 71.4821 102.928C71.4821 100.684 69.6677 98.8559 67.4398 98.8559V98.8464Z" fill="#BABAFF"/>
        <path d="M71.6983 27.4246C71.7453 26.7712 71.7735 26.1178 71.7735 25.4644C71.7735 18.5229 69.0473 12.0361 64.112 7.19698C59.1673 2.35788 52.6621 -0.18951 45.7527 0.00935737C32.6388 0.388152 21.8846 11.0228 21.2547 24.2143C21.2077 25.2844 21.2171 26.3545 21.3017 27.4151C9.25018 29.3375 0 39.887 0 52.5576C0 66.592 11.3371 78.0221 25.2782 78.0221C27.5155 78.0221 29.3204 76.1944 29.3204 73.9501C29.3204 71.7057 27.5061 69.878 25.2782 69.878C15.8024 69.878 8.0939 62.1127 8.0939 52.5671C8.0939 43.0215 15.8024 35.2562 25.2688 35.2562H31.3604L29.9409 30.0951C29.452 28.3243 29.2546 26.4776 29.3392 24.6121C29.7623 15.6536 37.0759 8.42807 45.9877 8.17238C50.6786 8.0398 55.1156 9.77279 58.4716 13.0588C61.8277 16.3449 63.6796 20.7578 63.6796 25.4738C63.6796 27.0458 63.4728 28.6084 63.0591 30.1046L61.6396 35.2751H67.7312C77.0284 35.2751 84.7275 42.8889 84.9061 52.2451C84.9907 56.8096 83.2516 61.1563 79.999 64.4991C76.6618 67.9272 72.0367 69.8875 67.3176 69.8875H52.6621C47.0405 69.8875 42.4624 74.4993 42.4624 80.1623V107.019H50.5564V80.1623C50.5564 78.988 51.5058 78.041 52.6621 78.041H67.3176C74.1988 78.041 80.9296 75.1906 85.7803 70.2095C90.5652 65.2946 93.1316 58.8551 93.0094 52.0841C92.7744 39.6786 83.543 29.3565 71.7171 27.4341L71.6983 27.4246Z" fill="#7474FF"/>
        <path d="M63.7078 92.3691C65.9451 92.3691 67.75 90.5414 67.75 88.297C67.75 86.0527 65.9357 84.225 63.7078 84.225H57.9076C55.6703 84.225 53.8654 86.0527 53.8654 88.297C53.8654 90.5414 55.6797 92.3691 57.9076 92.3691H63.7078Z" fill="#7474FF"/>
    </g>
    <defs>
        <clipPath id="clip0_3757_5284">
            <rect width="93" height="107" fill="white"/>
        </clipPath>
    </defs>
</svg>
