<svg width="131" height="22" viewBox="0 0 131 22" fill="none" xmlns="http://www.w3.org/2000/svg">
    <path d="M4.94399 21.432H-7.24196e-06V4.17599C-7.24196e-06 1.41599 0.863993 0.383986 3.74399 0.383986H11.736C13.128 0.383986 13.68 1.53599 13.68 2.51999C13.68 3.50399 13.152 4.58399 11.736 4.58399H5.63999C5.08799 4.58399 4.94399 4.70399 4.94399 5.27999V9.11999H11.112C12.504 9.11999 13.056 10.272 13.056 11.256C13.056 12.24 12.528 13.32 11.112 13.32H4.94399V21.432ZM31.5591 21.432H26.2791L25.1511 17.304H19.3911L18.2631 21.432H13.0791L19.2471 1.99199C19.6791 0.647985 21.0471 -1.4782e-05 22.3431 -1.4782e-05C23.5671 -1.4782e-05 24.8871 0.695985 25.2951 1.99199L31.5591 21.432ZM22.2711 6.67199L20.4951 13.248H24.0471L22.2711 6.67199ZM33.2344 21.432V2.39999C33.2344 0.743986 34.3864 -1.4782e-05 35.7304 -1.4782e-05C37.0744 -1.4782e-05 38.2264 0.743986 38.2264 2.39999V21.432H33.2344ZM57.891 21.432H52.467L48.603 14.496H45.795V21.432H40.875V4.17599C40.875 1.41599 41.739 0.383986 44.619 0.383986H49.035C53.187 0.383986 56.235 2.35198 56.235 6.64799V8.18399C56.235 10.56 54.939 12.36 53.115 13.44L57.891 21.432ZM45.795 5.20799V10.44H48.915C50.523 10.44 51.363 9.40799 51.363 8.18399V6.76799C51.363 5.54399 50.523 4.51199 48.915 4.51199H46.491C45.939 4.51199 45.795 4.63199 45.795 5.20799ZM75.3377 21.432H70.3457V4.58399H66.6737C65.2817 4.58399 64.7297 3.43199 64.7297 2.44799C64.7297 1.46398 65.2577 0.383986 66.6737 0.383986H79.0097C80.4257 0.383986 80.9537 1.46398 80.9537 2.44799C80.9537 3.43199 80.4017 4.58399 79.0097 4.58399H75.3377V21.432ZM99.3988 21.432H93.9748L90.1108 14.496H87.3028V21.432H82.3828V4.17599C82.3828 1.41599 83.2468 0.383986 86.1268 0.383986H90.5428C94.6948 0.383986 97.7428 2.35198 97.7428 6.64799V8.18399C97.7428 10.56 96.4468 12.36 94.6228 13.44L99.3988 21.432ZM87.3028 5.20799V10.44H90.4228C92.0308 10.44 92.8708 9.40799 92.8708 8.18399V6.76799C92.8708 5.54399 92.0308 4.51199 90.4228 4.51199H87.9988C87.4468 4.51199 87.3028 4.63199 87.3028 5.20799ZM105.631 5.27999V8.71199H112.183C113.575 8.71199 114.127 9.86399 114.127 10.824C114.127 11.784 113.599 12.864 112.183 12.864H105.631V16.536C105.631 17.112 105.775 17.232 106.327 17.232H112.639C114.055 17.232 114.583 18.312 114.583 19.296C114.583 20.28 114.031 21.432 112.639 21.432H104.455C101.575 21.432 100.711 20.4 100.711 17.64V4.17599C100.711 1.41599 101.575 0.383986 104.455 0.383986H112.399C113.791 0.383986 114.343 1.53599 114.343 2.51999C114.343 3.50399 113.815 4.58399 112.399 4.58399H106.327C105.775 4.58399 105.631 4.70399 105.631 5.27999ZM121.545 5.27999V8.71199H128.097C129.489 8.71199 130.041 9.86399 130.041 10.824C130.041 11.784 129.513 12.864 128.097 12.864H121.545V16.536C121.545 17.112 121.689 17.232 122.241 17.232H128.553C129.969 17.232 130.497 18.312 130.497 19.296C130.497 20.28 129.945 21.432 128.553 21.432H120.369C117.489 21.432 116.625 20.4 116.625 17.64V4.17599C116.625 1.41599 117.489 0.383986 120.369 0.383986H128.313C129.705 0.383986 130.257 1.53599 130.257 2.51999C130.257 3.50399 129.729 4.58399 128.313 4.58399H122.241C121.689 4.58399 121.545 4.70399 121.545 5.27999Z" fill="#7474FF"/>
</svg>
