<svg width="24" height="24" viewBox="0 0 24 24" fill="none" xmlns="http://www.w3.org/2000/svg">
    <path d="M12 2C12.3299 2 12.6698 2.08008 12.9697 2.25L19.96 6.19043C20.5998 6.55041 20.9999 7.22989 21 7.96973V19.9697C21 21.0897 20.1 22 19 22H15C14.45 22 14 21.55 14 21V17C14 15.9 13.1 15 12 15C10.9 15 10 15.9 10 17V21C10 21.55 9.55 22 9 22H5C3.9 22 3 21.0897 3 19.9697V7.96973C3.0001 7.22989 3.40021 6.55041 4.04004 6.19043L11.0303 2.25C11.3302 2.08008 11.6701 2 12 2ZM12 3.5C11.92 3.5 11.8395 3.51957 11.7695 3.55957L4.78027 7.5C4.61035 7.58996 4.5001 7.76984 4.5 7.96973V19.9697C4.5 20.2597 4.72 20.5 5 20.5H8.5V17C8.5 15.07 10.07 13.5 12 13.5C13.93 13.5 15.5 15.07 15.5 17V20.5H19C19.28 20.5 19.5 20.2597 19.5 19.9697V7.96973C19.4999 7.77983 19.3896 7.59995 19.2197 7.5L12.2305 3.55957C12.1605 3.51957 12.08 3.5 12 3.5Z" fill="#606060"/>
</svg>
