<svg width="24" height="24" viewBox="0 0 24 24" fill="none" xmlns="http://www.w3.org/2000/svg">
    <path d="M14 13C17.87 13 21 16.13 21 20C21 21.1 20.1 22 19 22H5C3.9 22 3 21.1 3 20C3 16.13 6.13 13 10 13H14ZM10 14.5C6.97 14.5 4.5 16.97 4.5 20C4.5 20.28 4.72 20.5 5 20.5H19C19.28 20.5 19.5 20.28 19.5 20C19.5 16.97 17.03 14.5 14 14.5H10ZM12 2C14.76 2 17 4.24 17 7C17 9.76 14.76 12 12 12C9.24 12 7 9.76 7 7C7 4.24 9.24 2 12 2ZM12 3.5C10.07 3.5 8.5 5.07 8.5 7C8.5 8.93 10.07 10.5 12 10.5C13.93 10.5 15.5 8.93 15.5 7C15.5 5.07 13.93 3.5 12 3.5Z" fill="#606060"/>
</svg>
