<svg width="24" height="24" viewBox="0 0 24 24" fill="none" xmlns="http://www.w3.org/2000/svg">
    <g clip-path="url(#clip0_3757_5277)">
        <path d="M20.4273 8.6589C20.299 8.7534 18.0346 9.9651 18.0346 12.6594C18.0346 15.7758 20.916 16.8783 21.0022 16.9056C20.9889 16.9728 20.5445 18.4155 19.483 19.8855C18.5366 21.1791 17.5482 22.4706 16.0445 22.4706C14.5408 22.4706 14.1538 21.6411 12.4179 21.6411C10.7263 21.6411 10.1248 22.4979 8.74939 22.4979C7.37396 22.4979 6.41425 21.3009 5.31081 19.8309C4.03268 18.1047 3 15.423 3 12.8778C3 8.7954 5.79509 6.6303 8.54595 6.6303C10.0076 6.6303 11.226 7.5417 12.1437 7.5417C13.0172 7.5417 14.3794 6.5757 16.0423 6.5757C16.6725 6.5757 18.9369 6.6303 20.4273 8.6589ZM15.2528 4.8474C15.9405 4.0725 16.427 2.9973 16.427 1.9221C16.427 1.773 16.4138 1.6218 16.385 1.5C15.2661 1.5399 13.9349 2.2077 13.1322 3.0918C12.502 3.7722 11.9138 4.8474 11.9138 5.9373C11.9138 6.1011 11.9425 6.2649 11.9558 6.3174C12.0265 6.33 12.1415 6.3447 12.2565 6.3447C13.2604 6.3447 14.5231 5.7063 15.2528 4.8474Z" fill="white"/>
    </g>
    <defs>
        <clipPath id="clip0_3757_5277">
            <rect width="18" height="21" fill="white" transform="translate(3 1.5)"/>
        </clipPath>
    </defs>
</svg>
