<svg width="16" height="16" viewBox="0 0 16 16" fill="none" xmlns="http://www.w3.org/2000/svg">
    <path d="M8 2C11.31 2 14 4.69 14 8C14 11.31 11.31 14 8 14C4.69 14 2 11.31 2 8C2 4.69 4.69 2 8 2ZM8 3C5.24 3 3 5.24 3 8C3 10.76 5.24 13 8 13C10.76 13 13 10.76 13 8C13 5.24 10.76 3 8 3ZM7.65039 10.1504C7.83039 9.96039 8.16961 9.96039 8.34961 10.1504C8.44961 10.2404 8.5 10.37 8.5 10.5C8.5 10.63 8.44961 10.7596 8.34961 10.8496C8.25961 10.9496 8.13 11 8 11C7.87 11 7.74039 10.9496 7.65039 10.8496C7.55039 10.7596 7.5 10.63 7.5 10.5C7.5 10.37 7.55039 10.2404 7.65039 10.1504ZM8 5C8.28 5 8.5 5.22 8.5 5.5V8.5C8.5 8.78 8.28 9 8 9C7.72 9 7.5 8.78 7.5 8.5V5.5C7.5 5.22 7.72 5 8 5Z" fill="#EB5050"/>
</svg>
