<svg width="24" height="24" viewBox="0 0 24 24" fill="none" xmlns="http://www.w3.org/2000/svg">
    <path d="M20.8 12.2083C20.8 11.5583 20.7417 10.9333 20.6333 10.3333H12V13.8833H16.9333C16.7167 15.025 16.0667 15.9916 15.0917 16.6416V18.95H18.0667C19.8 17.35 20.8 15 20.8 12.2083Z" fill="#4285F4"/>
    <path d="M12 21.1667C14.475 21.1667 16.55 20.35 18.0667 18.95L15.0917 16.6417C14.275 17.1917 13.2333 17.525 12 17.525C9.61667 17.525 7.59167 15.9167 6.86667 13.75H3.81667V16.1167C5.325 19.1083 8.41667 21.1667 12 21.1667Z" fill="#34A853"/>
    <path d="M6.86667 13.7417C6.68334 13.1917 6.575 12.6083 6.575 12C6.575 11.3917 6.68334 10.8083 6.86667 10.2583V7.89166H3.81667C3.19167 9.125 2.83334 10.5167 2.83334 12C2.83334 13.4833 3.19167 14.875 3.81667 16.1083L6.19167 14.2583L6.86667 13.7417Z" fill="#FBBC05"/>
    <path d="M12 6.48331C13.35 6.48331 14.55 6.94998 15.5083 7.84998L18.1333 5.22498C16.5417 3.74165 14.475 2.83331 12 2.83331C8.41667 2.83331 5.325 4.89165 3.81667 7.89165L6.86667 10.2583C7.59167 8.09165 9.61667 6.48331 12 6.48331Z" fill="#EA4335"/>
</svg>
