<svg width="18" height="18" viewBox="0 0 18 18" fill="none" xmlns="http://www.w3.org/2000/svg">
    <path d="M9 2.25C11.8911 2.25001 14.2312 4.6123 14.2314 7.53711C14.2314 9.01086 13.567 10.2829 12.6445 11.2842C11.6778 12.3522 9.00611 15.7423 9 15.75C9 15.75 6.32199 12.3529 5.35449 11.2842C4.432 10.2829 3.76855 9.01086 3.76855 7.53711C3.76876 4.61229 6.10888 2.25 9 2.25ZM9 3.375C6.73888 3.375 4.89376 5.24229 4.89355 7.53711C4.89355 8.58336 5.3325 9.58527 6.1875 10.5303C6.81753 11.2166 8.12257 12.8361 9 13.9385C9.87744 12.8473 11.1825 11.2278 11.8125 10.5303C12.6675 9.59652 13.1064 8.58336 13.1064 7.53711C13.1062 5.2423 11.2611 3.37502 9 3.375ZM9 5.34375C10.2375 5.34375 11.25 6.35625 11.25 7.59375C11.25 8.83125 10.2375 9.84375 9 9.84375C7.7625 9.84375 6.75 8.83125 6.75 7.59375C6.75 6.35625 7.7625 5.34375 9 5.34375ZM9 6.46875C8.38125 6.46875 7.875 6.975 7.875 7.59375C7.875 8.2125 8.38125 8.71875 9 8.71875C9.61875 8.71875 10.125 8.2125 10.125 7.59375C10.125 6.975 9.61875 6.46875 9 6.46875Z" fill="#606060"/>
</svg>
