<svg width="24" height="24" viewBox="0 0 24 24" fill="none" xmlns="http://www.w3.org/2000/svg">
    <path fill-rule="evenodd" clip-rule="evenodd" d="M12.2 3C15.7796 3.11022 18.5289 6.20986 18.5291 9.76953V14.5L19.91 17.5898C20.1999 18.2597 19.7198 18.9997 18.99 19H15.1492C14.5892 20.1799 13.3897 20.9999 11.9998 21C10.6098 21 9.40941 20.18 8.84941 19H5.00957C4.27958 19 3.78965 18.2498 4.08965 17.5898L5.46953 14.5V9.5C5.46953 5.91 8.3898 3 11.9998 3H12.2ZM10.6893 19C11.0393 19.31 11.4998 19.5 11.9998 19.5C12.4997 19.4999 12.9594 19.3099 13.3094 19H10.6893ZM11.9998 4.5C9.2298 4.5 6.96953 6.74 6.96953 9.5V14.8203L6.83965 15.1104L5.76933 17.5H18.2293L17.16 15.1104L17.0291 14.8203V9.76953C17.0289 6.94987 14.8496 4.5802 12.16 4.5H11.9998Z" fill="#1E1E1E"/>
</svg>
