<svg width="24" height="24" viewBox="0 0 24 24" fill="none" xmlns="http://www.w3.org/2000/svg">
    <g clip-path="url(#clip0_3918_6935)">
        <path d="M20.78 19.72L15.45 14.39C16.42 13.19 17 11.66 17 10C17 6.13 13.87 3 10 3C6.13 3 3 6.13 3 10C3 13.87 6.13 17 10 17C11.66 17 13.19 16.42 14.39 15.45L19.72 20.78C19.87 20.93 20.06 21 20.25 21C20.44 21 20.63 20.93 20.78 20.78C21.07 20.49 21.07 20.01 20.78 19.72ZM10 15.5C6.97 15.5 4.5 13.03 4.5 10C4.5 6.97 6.97 4.5 10 4.5C13.03 4.5 15.5 6.97 15.5 10C15.5 11.25 15.08 12.39 14.38 13.32C14.08 13.72 13.72 14.08 13.32 14.38C12.4 15.08 11.25 15.5 10 15.5Z" fill="#1E1E1E"/>
    </g>
    <defs>
        <clipPath id="clip0_3918_6935">
            <rect width="18" height="18" fill="white" transform="translate(3 3)"/>
        </clipPath>
    </defs>
</svg>
