<svg width="24" height="24" viewBox="0 0 24 24" fill="none" xmlns="http://www.w3.org/2000/svg">
    <path d="M16.9981 15C16.1776 15 15.4371 15.33 14.8968 15.86L9.86366 12.84C9.94371 12.57 10.0038 12.29 10.0038 12C10.0038 11.71 9.94371 11.43 9.86366 11.16L14.8968 8.14C15.4371 8.67 16.1776 9 16.9981 9C18.6592 9 20 7.66 20 6C20 4.34 18.6592 3 16.9981 3C15.3371 3 13.9962 4.34 13.9962 6C13.9962 6.3 14.0563 6.57 14.1363 6.84L9.10319 9.86C8.56285 9.33 7.82239 9 7.00188 9C5.34084 9 4 10.34 4 12C4 13.66 5.34084 15 7.00188 15C7.82239 15 8.56285 14.67 9.10319 14.14L14.1363 17.16C14.0563 17.43 13.9962 17.71 13.9962 18C13.9962 19.66 15.3371 21 16.9981 21C18.6592 21 20 19.66 20 18C20 16.34 18.6592 15 16.9981 15ZM15.4972 6C15.4972 5.17 16.1676 4.5 16.9981 4.5C17.8286 4.5 18.4991 5.17 18.4991 6C18.4991 6.83 17.8286 7.5 16.9981 7.5C16.738 7.5 16.4878 7.43 16.2777 7.31C15.8174 7.06 15.5072 6.58 15.4972 6.03V6.01V6ZM6.99187 13.5C6.16135 13.5 5.49093 12.83 5.49093 12C5.49093 11.17 6.16135 10.5 6.99187 10.5C7.25203 10.5 7.50219 10.57 7.71232 10.69C8.17261 10.94 8.4828 11.42 8.49281 11.97V11.99V12.01C8.49281 12.56 8.17261 13.04 7.71232 13.29C7.50219 13.41 7.25203 13.48 6.99187 13.48V13.5ZM16.9981 19.5C16.1676 19.5 15.4972 18.83 15.4972 18V17.98C15.4972 17.43 15.8174 16.95 16.2777 16.7C16.4878 16.58 16.738 16.51 16.9981 16.51C17.8286 16.51 18.4991 17.18 18.4991 18.01C18.4991 18.84 17.8286 19.51 16.9981 19.51V19.5Z" fill="black"/>
</svg>
